<svg xmlns="http://www.w3.org/2000/svg" version="1.1" xmlns:xlink="http://www.w3.org/1999/xlink" xmlns:svgjs="http://svgjs.dev/svgjs" width="50" height="52"><svg width="50" height="52" viewBox="0 0 50 52" fill="none" xmlns="http://www.w3.org/2000/svg">
<g clip-path="url(#clip0_189_542)">
<path d="M42.7253 15.942C42.2348 15.0826 41.6849 14.2619 41.0814 13.4852C45.1761 8.43892 48.6631 3.75153 49.8307 1.43937C47.6162 2.66181 43.0175 6.2458 38.1069 10.3821C37.4088 9.79051 36.6714 9.24416 35.8983 8.74781C38.5366 5.39533 40.6541 2.4547 41.4618 0.85553C39.8096 1.7673 36.591 4.23122 33.0053 7.19923C30.4693 6.09165 27.668 5.47686 24.7238 5.47686C13.2862 5.47686 4.01436 14.7487 4.01436 26.1863C4.01436 29.3191 4.71009 32.2895 5.95514 34.9516C3.3716 38.2101 1.28084 41.0674 0.5 42.5922C1.88848 41.8363 4.44941 39.9104 7.39064 37.5251C7.95901 38.3928 8.59165 39.2147 9.28024 39.9854C5.61709 44.521 2.53244 48.6472 1.47664 50.7082C3.50491 49.6042 7.65072 46.3868 12.1459 42.6416C12.9803 43.2808 13.8653 43.8575 14.7931 44.3651C12.5161 47.2605 10.6967 49.7697 9.99263 51.1451C11.4567 50.3482 14.2825 48.1919 17.457 45.5858C19.718 46.4333 22.1664 46.8969 24.7232 46.8969C36.1608 46.8969 45.4326 37.6251 45.4326 26.1875C45.4326 23.5075 44.9237 20.946 43.9965 18.5951C46.464 15.4516 48.4381 12.7032 49.1987 11.1974C47.8709 11.9301 45.4867 13.7102 42.7247 15.9432L42.7253 15.942Z" fill="#FCB300"></path>
<path d="M24.7237 40.8139C32.8019 40.8139 39.3507 34.2651 39.3507 26.1869C39.3507 18.1086 32.8019 11.5599 24.7237 11.5599C16.6454 11.5599 10.0967 18.1086 10.0967 26.1869C10.0967 34.2651 16.6454 40.8139 24.7237 40.8139Z" fill="#1E1E1E"></path>
<path d="M30.9335 21.9351C31.0025 21.9345 31.4566 21.9286 31.6631 21.6203C31.781 21.4441 31.7762 21.2328 31.7708 21.159C31.7542 20.9371 31.6482 20.7787 31.5941 20.7002C31.034 19.8848 30.6109 19.423 30.6109 19.423C30.3949 19.1873 30.0265 18.785 29.858 18.6011C28.7909 17.5001 27.7655 16.6585 26.9156 16.0354C26.8079 15.9562 24.9469 14.6035 22.8745 13.6614C22.3883 13.4406 21.9919 13.2608 21.6664 13.1204C21.3349 13.1668 21.0641 13.1858 20.8814 13.1948C20.6499 13.2061 20.5856 13.1995 20.0012 13.2096C19.9416 13.2108 19.6923 13.2144 19.3888 13.2233C18.8864 13.2376 18.6353 13.2453 18.5341 13.2543C18.3127 13.2739 17.9003 13.3108 17.5045 13.4542C17.301 13.528 16.516 13.8119 16.1065 14.5987C16.1065 14.5987 15.7929 15.2004 15.8684 16.1199C15.8815 16.2818 15.9131 16.4282 15.9143 16.4347C15.9845 16.7585 16.1065 16.9847 16.1755 17.1108C16.2255 17.2025 16.2785 17.2864 16.3327 17.365C16.3725 17.4197 16.4243 17.4888 16.4862 17.5661C16.5422 17.6358 16.5856 17.6863 16.6183 17.7232C16.7397 17.8637 16.8022 17.9351 16.8784 17.9929C16.8903 18.0018 16.8772 17.9988 17.0058 18.0786C17.1236 18.1512 17.27 18.2422 17.4527 18.4481C17.6218 18.6392 17.7765 18.8302 17.8366 19.051C18.0878 18.9314 18.3205 18.6957 18.3806 18.3868C18.4585 17.9869 18.2074 17.6661 18.1616 17.609C18.1098 17.6018 18.0199 17.5858 17.9187 17.5423C17.1944 17.2328 16.7725 15.9342 17.2462 15.104C17.4819 14.6904 17.8717 14.513 17.9199 14.4916C19.0632 13.9928 20.6189 15.098 21.4004 16.0128C21.9009 16.599 22.152 17.1864 22.2764 17.534C22.3883 17.4882 22.53 17.437 22.6966 17.3941C22.6966 17.3941 22.9727 17.3233 23.2673 17.3037C24.2821 17.2352 25.9175 18.1178 25.9175 18.1178C26.4877 18.4255 26.8847 18.7023 27.3233 19.0088C27.8226 19.3575 28.2999 19.6908 28.8367 20.1765C30.0175 21.2447 30.2663 21.944 30.9341 21.9357L30.9335 21.9351Z" fill="#FCB300"></path>
<path d="M35.302 18.863C35.5639 19.5849 35.7805 20.3288 35.9465 21.0781C36.0757 20.8859 36.1888 20.6835 36.2828 20.474C36.478 20.0414 36.5958 19.5801 36.6351 19.101C36.6351 19.0046 36.6304 18.9016 36.6185 18.7933C36.5941 18.5612 36.5458 18.3618 36.4953 18.2017C36.6339 17.9768 36.8119 17.6477 36.9565 17.2263C37.0708 16.8918 37.2565 16.349 37.2106 15.7307C37.1987 15.573 37.0755 14.169 36.0424 13.6542C35.7805 13.5239 35.5079 13.4739 35.2347 13.4739C34.7342 13.4739 34.2319 13.6417 33.7897 13.7923C33.413 13.9208 33.116 14.072 32.9119 14.1887C33.1249 14.5451 33.4219 15.0528 33.76 15.6718C34.395 16.8335 34.8806 17.7048 35.302 18.8641V18.863ZM35.6507 15.6313C35.7948 14.9445 35.9317 14.7933 36.0465 14.713C36.1001 14.6755 36.2036 14.6035 36.3346 14.613C36.6518 14.6356 36.8357 15.1147 36.8684 15.201C37.047 15.6652 36.9398 16.0991 36.7803 16.6913C36.6982 16.9942 36.5655 17.4042 36.3423 17.8702C36.1947 17.5447 36.062 17.2995 35.9656 17.1329C35.9055 17.0287 35.815 16.8769 35.6966 16.649C35.6275 16.5157 35.574 16.4044 35.5389 16.33C35.5704 16.0443 35.6132 15.8069 35.6501 15.6307L35.6507 15.6313Z" fill="#FCB300"></path>
<path d="M33.1464 28.4127C33.1012 28.4127 33.0572 28.4127 33.0137 28.4127C32.5632 28.4104 31.3669 28.4044 30.3909 27.4938C29.941 27.0737 29.6773 26.5928 29.522 26.175L29.5125 26.1762C29.5261 26.3291 29.5446 26.5356 29.5583 26.6946C29.6333 27.5432 29.6749 28.0289 29.685 28.1467C29.7267 28.6163 29.8172 29.3239 30.032 30.3446C30.2367 31.2159 30.1338 31.4248 30.3766 31.6617C30.5409 31.8218 30.8265 31.8628 31.3134 31.8628C31.5252 31.8628 31.7758 31.8551 32.071 31.8456C33.2619 31.8081 33.5196 31.6301 33.6499 31.4528C33.7088 31.3724 33.7672 31.2332 33.8838 30.9546C34.0356 30.5934 34.1189 30.3172 34.1451 30.2327C34.3355 29.6102 34.5843 29.3424 34.8747 28.7579C35.0206 28.4645 35.189 28.0664 35.3253 27.5575C35.2699 27.6277 35.2086 27.6968 35.1408 27.7634C34.5171 28.3747 33.7452 28.4139 33.1458 28.4139L33.1464 28.4127Z" fill="#1E1E1E"></path>
<path d="M32.6053 32.1723C31.2692 32.3437 30.6015 32.4288 30.1563 32.0824C29.9658 31.9342 29.9873 31.8473 29.826 31.2808C29.7117 30.8802 29.6617 30.9374 29.4879 30.25C29.4094 29.9381 29.426 29.6274 29.4766 28.94C29.5481 27.9711 29.5802 27.8777 29.604 27.8658C29.6052 27.8652 29.607 27.8652 29.6094 27.864C29.7861 27.8128 29.9647 27.9432 30.0069 27.9735C30.1515 28.0783 30.2087 28.233 30.2837 28.4693C30.4783 29.0841 30.5544 29.4834 30.5544 29.4834C30.6229 29.8441 30.6211 29.8941 30.6806 30.2381C30.7175 30.4505 30.7758 30.7386 30.8711 31.079C30.9752 31.0409 31.13 30.9689 31.2746 30.829C31.2984 30.8058 31.3817 30.7231 31.5115 30.5023C31.5888 30.3708 31.6864 30.1845 31.7739 29.9453C31.9281 30.1714 31.9626 30.3696 31.9715 30.4731C31.9834 30.6059 31.9667 30.7297 31.9542 30.8249C31.9364 30.9612 31.9084 31.0737 31.8852 31.1534C31.9572 31.1546 32.0495 31.1552 32.156 31.1516C32.3256 31.1457 32.4887 31.1409 32.6797 31.1076C32.8035 31.0862 32.9731 31.0463 33.1701 30.9695C33.2761 30.8552 33.4171 30.6761 33.5272 30.4279C33.6159 30.2279 33.657 30.0464 33.6772 29.9095C33.7325 29.9833 33.8081 30.1036 33.8557 30.2666C33.9147 30.4678 33.9831 30.6398 33.9694 30.7392C34.0545 30.6576 34.0289 30.6475 34.0629 30.6582C34.2146 30.7064 34.2664 31.2474 34.0242 31.6361C33.9212 31.8009 33.7516 32.0241 32.6047 32.1711L32.6053 32.1723Z" fill="white"></path>
<path d="M30.7913 30.1589C30.7758 29.8107 30.7341 29.4637 30.6681 29.1269C30.605 28.8067 30.5342 28.568 30.4824 28.3931C30.3997 28.1139 30.3479 27.9919 30.3259 27.9396C30.2693 27.8051 30.2039 27.6735 30.1306 27.5485L29.9456 27.2325L30.2925 27.1159C30.4449 27.0647 30.8216 26.9391 31.0269 26.8808C31.046 26.8754 31.0966 26.8611 31.1644 26.8504C31.2275 26.8403 31.3061 26.8278 31.3876 26.8278C31.4864 26.8278 31.5703 26.8457 31.6441 26.8832C31.9958 27.0599 31.9774 27.5718 31.9661 27.8771C31.9637 27.936 31.9619 27.98 31.9613 27.989L31.9601 28.0068C31.9137 28.6698 31.8834 29.1078 31.7066 29.5905C31.6149 29.8411 31.49 30.0839 31.3352 30.3124L30.8317 31.0552L30.7913 30.1589Z" fill="white"></path>
<path d="M31.3877 27.126C31.4329 27.126 31.4757 27.132 31.5109 27.1498C31.6823 27.2361 31.6787 27.6027 31.6692 27.867C31.6674 27.9212 31.6656 27.961 31.665 27.9688C31.6192 28.6258 31.5912 29.0418 31.4275 29.4888C31.3656 29.6578 31.2639 29.8887 31.0889 30.1458C31.0699 29.7167 31.0157 29.3525 30.9603 29.0698C30.8961 28.7425 30.8247 28.4996 30.7675 28.3086C30.6854 28.033 30.6318 27.8997 30.6003 27.8247C30.5241 27.6432 30.4461 27.4992 30.3872 27.3986C30.4753 27.3689 30.8931 27.2284 31.1073 27.1683C31.1252 27.1635 31.1615 27.1534 31.2109 27.1451C31.2668 27.1362 31.3293 27.126 31.3877 27.126ZM31.3877 26.5309C31.2829 26.5309 31.1877 26.5458 31.1181 26.5571C31.03 26.5714 30.9657 26.5898 30.9443 26.5958C30.7431 26.6523 30.3896 26.7695 30.1974 26.8344L29.5034 27.0677L29.8742 27.6992C29.9409 27.8128 30.0004 27.9325 30.0521 28.0545C30.0724 28.1021 30.1194 28.2146 30.1974 28.4776C30.2474 28.646 30.3164 28.877 30.3765 29.1841C30.4396 29.5066 30.4795 29.8387 30.4943 30.172L30.5747 31.9646L31.5811 30.4791C31.7495 30.2309 31.8858 29.9661 31.9858 29.6929C32.1768 29.171 32.2102 28.6919 32.2566 28.0283L32.2578 28.0098C32.2596 27.9819 32.2625 27.9039 32.2631 27.8884C32.2762 27.5361 32.3 26.8802 31.7775 26.6178C31.6626 26.56 31.5317 26.5309 31.3871 26.5309H31.3877Z" fill="#1E1E1E"></path>
<path d="M27.1156 25.1388C27.3072 24.8865 27.5554 24.6044 27.8714 24.3258C28.0357 24.1812 28.197 24.0568 28.3499 23.9497C28.0023 23.6331 27.5542 23.2474 27.012 22.8344C26.7716 22.6511 26.0009 22.0732 24.857 21.4055C23.7143 20.7383 23.0697 20.3622 22.1937 20.136C21.93 20.0676 21.4646 19.9664 20.9504 19.8848C20.5136 19.8152 20.2481 19.773 19.8785 19.7581C19.4268 19.7396 19.0745 19.7807 18.3687 19.8616C17.7562 19.9319 17.5515 19.9854 17.3873 20.039C17.0653 20.1437 16.8129 20.2765 16.6397 20.3806C16.5975 20.2794 16.4814 19.9622 16.6052 19.6087C16.638 19.5159 16.7141 19.3022 16.901 19.179C16.873 19.1439 16.8361 19.0992 16.7844 19.0403C16.6891 18.9326 16.6314 18.8975 16.5368 18.8386C16.3737 18.7374 15.9529 18.4791 15.7524 18.2559C13.0218 21.0257 12.3642 21.9804 12.2261 22.3125C12.2065 22.3595 12.1993 22.929 11.9268 23.4534C11.8524 23.5968 11.8012 23.6873 11.7655 23.7527C11.5941 24.0652 11.4608 24.358 11.0162 25.4584C10.8103 25.9691 10.674 26.3136 10.5549 26.8064C10.5549 26.8064 10.3883 27.498 10.5204 27.5438C10.6061 27.5736 10.9692 27.2736 11.0221 27.2623C11.0221 27.2623 11.0239 27.2623 11.0257 27.2617C11.043 27.2582 11.0793 27.2427 11.0965 27.2427C11.1007 27.2427 11.1037 27.2439 11.1055 27.2457C11.1138 27.2593 11.0555 27.3075 11.0471 27.3147C10.9614 27.3885 10.8144 27.6771 10.7603 28.111C10.6948 28.6365 10.7972 29.1233 10.8561 29.3537C10.9632 29.2192 11.1126 29.0561 11.3126 28.8972C11.5102 28.7395 11.7006 28.6312 11.8542 28.5574C11.7107 29.0263 11.6232 29.4388 11.5673 29.7679C11.4292 30.5832 11.2894 31.4611 11.5673 32.4651C11.6881 32.9014 11.8571 33.2513 12.0029 33.506C12.1089 33.4066 12.2154 33.3078 12.3213 33.2085C12.3368 33.3816 12.3701 33.6221 12.4487 33.8988C12.532 34.191 12.6576 34.497 12.7671 34.6743C13.2039 35.379 14.2836 35.495 14.477 35.5135C14.6561 34.2083 15.0328 33.218 15.3263 32.5824C16.2071 30.6755 17.4724 29.5132 18.3847 28.6746C18.9013 28.2003 19.3792 27.7658 20.1261 27.3153C20.7742 26.9249 21.7937 26.3107 23.2269 26.1684C23.3584 26.1553 23.4744 26.1482 23.5899 26.1482C23.6167 26.1482 23.6435 26.1482 23.6708 26.1494C23.8922 26.1559 24.0976 26.1666 24.3196 26.1905C25.811 26.3511 27.6161 26.9981 27.6161 26.9981C28.2154 27.2058 28.3303 27.273 28.4172 27.3302C28.4422 27.3468 28.466 27.3641 28.4904 27.3813C28.3225 26.9903 28.1113 26.5452 27.7762 26.0298C27.5226 25.6399 27.2828 25.3388 27.115 25.1406L27.1156 25.1388Z" fill="#FCB300"></path>
<path d="M37.7135 21.1858C37.5421 20.9567 37.4159 20.7716 37.2344 20.4996C37.1921 20.6145 37.1475 20.7288 37.0969 20.8407C36.9886 21.0817 36.8594 21.3144 36.7136 21.5364C36.8475 21.6524 36.941 21.7578 36.9999 21.8244C37.2469 22.1053 37.3963 22.3773 37.4778 22.5559C37.6361 22.9023 37.723 23.2736 37.7379 23.6605C37.7599 23.6765 37.7813 23.6938 37.8004 23.7134C37.8754 23.7301 37.9652 23.7432 38.0658 23.7432C38.1301 23.7432 38.1979 23.7378 38.2699 23.7253C38.336 23.7134 38.3961 23.6968 38.4491 23.6783C38.4056 23.5754 38.3562 23.4676 38.3009 23.3564C38.2408 23.2367 38.1795 23.1254 38.1194 23.0225C38.2324 22.9713 38.3473 22.9171 38.464 22.8606C38.5753 22.8064 38.6842 22.7523 38.7895 22.6975C38.7282 22.5892 38.6342 22.4291 38.5122 22.2422C38.258 21.8536 38.1307 21.7441 37.7129 21.1858H37.7135Z" fill="#FCB300"></path>
<path d="M34.8497 27.6474C34.8896 27.6474 34.9289 27.6509 34.9664 27.6622C35.0979 27.7009 35.0247 28.0616 34.9795 28.2503C34.9718 28.2818 34.9652 28.3092 34.9604 28.3288C34.82 28.8936 34.5302 29.4007 34.2332 29.8232C34.2112 29.8548 34.1475 29.9048 34.1397 29.9458C34.21 29.5798 34.2421 29.2019 34.2308 28.8335C34.2254 28.652 34.2094 28.4722 34.1808 28.2979C34.1677 28.2163 34.1534 28.1318 34.1302 28.0568C34.1112 27.9949 34.0713 27.9283 34.0939 27.8503C34.1344 27.7087 34.3344 27.689 34.6736 27.6593C34.7301 27.6545 34.7908 27.6462 34.8503 27.6462" fill="white"></path>
<path d="M36.6661 22.9272C36.6197 22.8255 36.5144 22.6243 36.3299 22.4142C36.2608 22.3356 36.1567 22.2172 35.9906 22.1035C35.8317 21.9946 35.6532 21.9161 35.461 21.869L35.186 21.8018L35.1289 21.5245C34.9652 20.727 34.7414 19.9336 34.4629 19.1671C34.2445 18.5654 33.8374 17.4447 33.0083 16.152C32.4174 15.2308 31.6627 14.3243 30.8259 13.531C30.0385 12.7847 29.1655 12.1276 28.2293 11.573C27.821 11.4724 26.9527 11.2944 25.8064 11.2944C24.9929 11.2944 24.04 11.3843 23.0128 11.6551C22.9807 11.6634 22.9485 11.6724 22.917 11.6813C24.7459 12.3919 27.3931 13.7459 29.6969 16.3336C30.573 17.3179 31.2396 18.3011 31.7484 19.1915C32.0942 19.7015 32.296 20.1675 32.4168 20.505C32.5239 20.8043 32.6489 21.1644 32.6703 21.6572C32.6804 21.8881 32.6649 22.0821 32.6471 22.222C32.3406 22.2916 31.7115 22.4785 31.1372 23.0171C30.942 23.2004 30.5605 23.5664 30.3587 24.1753C30.0731 25.0382 30.3439 25.7988 30.4456 26.0482C30.4427 26.0482 30.4391 26.0488 30.4361 26.0494C30.5563 26.3112 30.7343 26.591 31.0003 26.8391C31.7204 27.5117 32.5971 27.5158 33.0179 27.5182C33.5285 27.5212 34.1076 27.5236 34.5165 27.1236C34.7575 26.8873 34.867 26.5898 34.9158 26.3434C34.9057 26.3267 34.8968 26.3101 34.886 26.2934C34.7605 26.0952 34.6117 25.9345 34.4343 25.7833C34.3046 25.6726 34.1623 25.5548 33.9909 25.5173C33.8511 25.487 33.6975 25.5084 33.5547 25.4959C33.244 25.4685 32.9572 25.3316 32.8774 25.0085C32.803 24.7073 32.8869 24.4609 33.0524 24.2657C33.319 23.9521 33.7463 23.7938 34.1379 23.7087C35.0158 23.5176 35.9395 23.5539 36.8346 23.5307C36.8102 23.3194 36.7536 23.1165 36.6661 22.9254V22.9272Z" fill="white"></path>
<path d="M35.7121 26.9433C35.6954 26.9498 35.6788 26.9564 35.6621 26.9629C35.6431 27.0111 35.6222 27.0599 35.5996 27.1087C35.6847 27.1373 35.7865 27.1593 35.9002 27.1593C35.9388 27.1593 35.9787 27.1569 36.0198 27.151C36.2358 27.1206 36.4292 27.0105 36.6572 26.7743C36.9935 26.4273 37.2083 26.0119 37.3523 25.6167C36.9423 26.2047 36.3644 26.6921 35.7127 26.9433H35.7121Z" fill="white"></path>
<path d="M39.5674 22.2577C39.471 22.0875 39.3675 21.9179 39.2603 21.7536C39.0883 21.4906 38.9598 21.3299 38.811 21.1436C38.7092 21.0156 38.5938 20.871 38.4289 20.6508C38.2426 20.4014 38.1135 20.208 37.879 19.8557L37.8534 19.817C37.7421 19.6498 37.632 19.4808 37.5237 19.3111C37.5267 19.2564 37.5278 19.2016 37.5284 19.1469C37.535 19.0618 37.5397 18.9755 37.5421 18.8892H37.5225C37.5189 18.8255 37.5142 18.7618 37.5076 18.6987C37.4945 18.5749 37.4755 18.4517 37.4511 18.3291C37.5891 18.0667 37.707 17.7935 37.8028 17.5138C37.9284 17.1472 38.1617 16.4639 38.1028 15.6635C38.0772 15.3195 37.8784 13.5685 36.4417 12.8532C36.0769 12.6711 35.671 12.5788 35.2359 12.5788C34.5771 12.5788 33.9564 12.7907 33.5029 12.9448C33.3541 12.9954 33.2071 13.0525 33.0624 13.115C32.6613 12.771 32.0733 12.3187 31.3282 11.8878C30.1385 11.2004 29.0499 10.8666 28.6369 10.7547C28.6155 10.7487 28.5941 10.7434 28.5726 10.738C28.4947 10.7184 28.4161 10.6993 28.3381 10.6797C27.5603 10.4988 26.6741 10.4 25.8082 10.4C24.7851 10.4 23.7686 10.5315 22.7866 10.7904C21.9177 11.0195 21.0732 11.3498 20.2768 11.7712L19.2151 12.333C18.7699 12.3461 18.5717 12.3521 18.4563 12.3628C18.2129 12.3842 17.707 12.4294 17.2023 12.6121C16.115 13.0061 15.5764 13.6846 15.3163 14.1839C15.2716 14.2702 14.8866 15.0505 14.98 16.1902C14.9973 16.4032 15.036 16.5871 15.0437 16.6217C15.1431 17.0781 15.3192 17.3995 15.3942 17.537C15.4192 17.5828 15.5121 17.6388 15.4722 17.6727C12.5042 20.1884 10.6842 23.1498 9.99504 26.6588C9.96886 26.7904 9.89684 26.9118 9.84923 27.0386L9.17969 28.8163L9.85102 28.5853C9.86351 28.9728 9.92839 29.3174 9.99326 29.5703L10.4372 31.3141L10.5164 31.2147C10.514 31.6742 10.5634 32.1699 10.7098 32.6996C10.8294 33.1317 11.0044 33.5513 11.2312 33.9465L11.7918 34.9243L11.8608 34.8594C11.9102 34.9636 11.9608 35.0588 12.0114 35.1409C12.6256 36.1318 13.8843 36.3503 14.3968 36.3985L15.2484 36.4782L15.3645 35.6307C15.4942 34.6874 15.7549 33.7864 16.14 32.9532C16.9464 31.2088 18.1284 30.122 18.9919 29.3281C19.4615 28.8966 19.9049 28.4889 20.5899 28.0765C21.185 27.7176 22.0849 27.1754 23.3181 27.0534C23.427 27.0427 23.5145 27.0374 23.593 27.0374C23.6115 27.0374 23.6293 27.0374 23.6478 27.038C23.8811 27.0451 24.0543 27.0558 24.2274 27.0743C25.5933 27.2219 27.302 27.8289 27.3192 27.8349L27.4651 27.8872H27.468C27.8204 28.0128 27.9078 28.0575 27.9293 28.0717C28.2792 28.3027 28.4643 28.6681 28.7268 29.2418C28.847 29.5043 29.0184 29.9351 29.1547 30.4976C29.2332 30.8207 29.2636 31.0415 29.2886 31.2189C29.3356 31.5563 29.3892 31.939 29.7558 32.2973C30.1861 32.7175 30.7872 32.7532 31.3163 32.7532C31.5424 32.7532 31.8019 32.7448 32.1019 32.7359C33.1862 32.702 33.9439 32.5633 34.373 31.9783C34.4944 31.8128 34.5664 31.6408 34.7104 31.2974C34.877 30.8999 34.9705 30.5946 35.0008 30.4946L35.002 30.491C35.0955 30.1857 35.2062 29.9953 35.3603 29.7316C35.4549 29.5685 35.5627 29.384 35.6775 29.1525C35.8525 28.8008 36.0001 28.4276 36.1191 28.0378C36.1286 28.0366 36.1382 28.0354 36.1477 28.0342C36.7036 27.9557 37.0726 27.6313 37.3023 27.3945C38.1754 26.4928 38.3938 25.3079 38.4991 24.7383C38.5086 24.6865 38.5176 24.6347 38.5265 24.583C38.6015 24.5657 38.6759 24.5443 38.7485 24.5193L39.6466 24.205L39.3192 23.4308L40.0293 23.0653L39.571 22.2565L39.5674 22.2577ZM33.7897 13.7911C34.2843 13.6108 34.7193 13.4727 35.2347 13.4727C35.5079 13.4727 35.7805 13.5227 36.0424 13.6531C37.0755 14.1679 37.1993 15.5718 37.2106 15.7295C37.2559 16.3485 37.0708 16.8907 36.9565 17.2251C36.8125 17.6465 36.6345 17.9762 36.4953 18.2006C36.5458 18.3607 36.5941 18.5601 36.6185 18.7922C36.6298 18.9005 36.6345 19.0034 36.6351 19.0999C36.5958 19.579 36.478 20.0402 36.2828 20.4729C36.1882 20.6824 36.0751 20.8847 35.9465 21.0769C35.7132 20.1824 35.4853 19.4314 35.302 18.8618C35.0467 18.0667 34.6943 16.9805 34.1016 15.6254C33.8016 14.9392 33.5243 14.3773 33.3201 13.9804C33.4279 13.9316 33.5897 13.8625 33.7897 13.7893V13.7911ZM28.4179 27.3278C28.3316 27.2707 28.2161 27.2034 27.6168 26.9957C27.6168 26.9957 25.8117 26.3494 24.3203 26.1881C24.0983 26.1643 23.8924 26.1536 23.6716 26.147C23.6448 26.1464 23.6174 26.1458 23.5906 26.1458C23.4752 26.1458 23.3591 26.153 23.2276 26.1661C21.7945 26.3083 20.775 26.9225 20.1269 27.3129C19.3794 27.7634 18.9015 28.1973 18.3855 28.6722C17.4731 29.5108 16.2084 30.6731 15.327 32.58C15.0336 33.215 14.6568 34.2053 14.4777 35.5111C14.2843 35.4932 13.2047 35.3772 12.7678 34.6719C12.6577 34.4946 12.5322 34.1893 12.4494 33.8965C12.3709 33.6197 12.3376 33.3793 12.3221 33.2061C12.2161 33.3055 12.1096 33.4043 12.0037 33.5037C11.8579 33.2489 11.6888 32.899 11.568 32.4627C11.2901 31.4581 11.4299 30.5803 11.568 29.7655C11.624 29.4364 11.7115 29.024 11.8549 28.555C11.7013 28.6288 11.5109 28.7371 11.3133 28.8948C11.1133 29.0543 10.9639 29.2168 10.8568 29.3513C10.7979 29.121 10.6961 28.6347 10.761 28.1086C10.8152 27.6748 10.9616 27.3861 11.0479 27.3123C11.0562 27.3052 11.1145 27.257 11.1062 27.2433C11.105 27.2409 11.102 27.2403 11.0973 27.2403C11.08 27.2403 11.0437 27.2558 11.0264 27.2594C10.9032 27.2855 10.789 27.3183 10.683 27.3552C10.7193 27.2724 10.7556 27.1897 10.7919 27.107C10.8027 27.0671 10.8181 27.0278 10.8247 26.9874C11.2585 24.189 12.8488 20.8924 16.0203 18.4065C15.7841 18.5916 16.3739 18.7362 16.5369 18.8368C16.6321 18.8957 16.6893 18.9308 16.7845 19.0386C16.8363 19.0975 16.8738 19.1415 16.9012 19.1772C16.7149 19.3004 16.6381 19.5141 16.6054 19.6069C16.4816 19.9604 16.5976 20.2777 16.6399 20.3788C16.8125 20.2747 17.0648 20.1426 17.3874 20.0372C17.5517 19.9837 17.7564 19.9307 18.3688 19.8599C19.074 19.7783 19.427 19.7379 19.8787 19.7563C20.2477 19.7712 20.5137 19.8134 20.9506 19.8831C21.4654 19.9652 21.9302 20.0664 22.1938 20.1342C23.0699 20.3604 23.7138 20.7371 24.8571 21.4037C26.001 22.0714 26.7717 22.6493 27.0121 22.8326C27.5549 23.2457 28.0025 23.6313 28.35 23.9479C28.1971 24.0551 28.0358 24.1801 27.8715 24.3241C27.5549 24.6026 27.3067 24.8847 27.1157 25.1371C27.2835 25.3352 27.5234 25.6358 27.7769 26.0262C28.112 26.5416 28.3233 26.9868 28.4911 27.3778C28.4673 27.3605 28.4435 27.3433 28.4179 27.3266V27.3278ZM28.8363 20.1759C28.2995 19.6902 27.8221 19.357 27.3228 19.0082C26.8836 18.7017 26.4872 18.4244 25.9171 18.1173C25.9171 18.1173 24.2816 17.2347 23.2669 17.3031C22.9723 17.3227 22.6961 17.3936 22.6961 17.3936C22.5295 17.4364 22.3878 17.4876 22.276 17.5334C22.1522 17.1859 21.9004 16.5984 21.3999 16.0122C20.6191 15.0975 19.0633 13.9923 17.9195 14.491C17.8712 14.5119 17.482 14.6898 17.2457 15.1034C16.772 15.9337 17.194 17.2317 17.9183 17.5418C18.02 17.5852 18.1093 17.6013 18.1611 17.6084C18.2069 17.6655 18.4575 17.9863 18.3801 18.3863C18.32 18.6952 18.0873 18.9308 17.8361 19.0505C17.7766 18.8297 17.6213 18.638 17.4523 18.4476C17.2696 18.2417 17.1231 18.1512 17.0053 18.078C16.8768 17.9982 16.8898 18.0018 16.8779 17.9923C16.8018 17.9346 16.7393 17.8631 16.6179 17.7227C16.5857 17.6858 16.5423 17.6352 16.4857 17.5656C16.4233 17.4882 16.3721 17.4198 16.3322 17.3644C16.278 17.2864 16.2251 17.2019 16.1751 17.1103C16.106 16.9841 15.984 16.7579 15.9138 16.4342C15.9126 16.4276 15.8811 16.2806 15.868 16.1193C15.793 15.1998 16.106 14.5981 16.106 14.5981C16.5155 13.8114 17.3005 13.5269 17.504 13.4537C17.8998 13.3102 18.3123 13.2733 18.5337 13.2537C18.6348 13.2448 18.886 13.2376 19.3883 13.2228C19.6918 13.2138 19.9412 13.2103 20.0007 13.2091C20.5845 13.199 20.6494 13.2049 20.8809 13.1942C21.0642 13.1853 21.3344 13.1662 21.6659 13.1198C21.9921 13.2603 22.3884 13.44 22.8741 13.6608C24.9464 14.6029 26.8068 15.9557 26.9151 16.0348C27.765 16.658 28.7905 17.4995 29.8576 18.6005C30.026 18.7844 30.3944 19.1867 30.6104 19.4224C30.6104 19.4224 31.0336 19.8843 31.5936 20.6996C31.6472 20.7782 31.7531 20.9365 31.7704 21.1585C31.7757 21.2317 31.7805 21.4436 31.6626 21.6197C31.4561 21.928 31.002 21.934 30.933 21.9346C30.2652 21.9429 30.0165 21.2436 28.8357 20.1753L28.8363 20.1759ZM34.8747 28.7568C34.5842 29.3412 34.3355 29.609 34.145 30.2315C34.1194 30.316 34.0355 30.5922 33.8837 30.9534C33.7671 31.232 33.7082 31.3712 33.6499 31.4516C33.5195 31.6295 33.2618 31.8075 32.0709 31.8444C31.7757 31.8539 31.5258 31.8616 31.3133 31.8616C30.8265 31.8616 30.5408 31.8206 30.3765 31.6605C30.1343 31.4236 30.2367 31.2147 30.0319 30.3434C29.8171 29.3221 29.7266 28.6151 29.685 28.1455C29.6743 28.0283 29.6332 27.5421 29.5582 26.6934C29.5439 26.5345 29.5261 26.3279 29.5124 26.175L29.5219 26.1738C29.6772 26.5916 29.9409 27.0725 30.3908 27.4927C31.3663 28.4032 32.5625 28.4092 33.0136 28.4116C33.0571 28.4116 33.1011 28.4116 33.1464 28.4116C33.7457 28.4116 34.5176 28.3723 35.1413 27.7611C35.2091 27.6944 35.2698 27.6254 35.3258 27.5551C35.1889 28.0646 35.0211 28.4622 34.8753 28.7556L34.8747 28.7568ZM34.1379 23.7105C33.7463 23.7956 33.3189 23.9539 33.0523 24.2675C32.8869 24.4627 32.803 24.7085 32.8773 25.0103C32.9571 25.3335 33.244 25.4703 33.5546 25.4977C33.6975 25.5102 33.851 25.4882 33.9909 25.5191C34.1617 25.5566 34.3039 25.6745 34.4343 25.7852C34.6116 25.9363 34.7604 26.097 34.886 26.2952C34.8961 26.3113 34.9056 26.3285 34.9157 26.3452C34.8669 26.5916 34.7574 26.8892 34.5164 27.1254C34.1081 27.526 33.529 27.523 33.0178 27.52C32.5964 27.5177 31.7204 27.5135 31.0002 26.841C30.7342 26.5928 30.5563 26.3131 30.436 26.0512C30.439 26.0512 30.4426 26.0506 30.4456 26.05C30.3438 25.8006 30.073 25.04 30.3587 24.1771C30.5604 23.5688 30.9419 23.2022 31.1371 23.0189C31.7115 22.4803 32.3399 22.2934 32.647 22.2238C32.6643 22.0839 32.6804 21.8899 32.6702 21.659C32.6488 21.1656 32.5238 20.8062 32.4167 20.5068C32.2959 20.1687 32.0941 19.7033 31.7483 19.1933C31.2401 18.303 30.5735 17.3198 29.6969 16.3354C27.393 13.7477 25.0339 12.3181 23.205 11.6081C23.205 11.6081 23.2074 11.6075 23.208 11.6075C23.5442 11.5099 23.8936 11.4403 24.4399 11.3814C24.8006 11.3427 25.2327 11.2957 25.807 11.2963C26.4057 11.2969 27.2401 11.3492 28.2298 11.5748C28.6077 11.7986 29.0422 12.0783 29.5064 12.4241C29.7659 12.6169 30.2676 13.0037 30.8265 13.5334C32.0519 14.694 32.7976 15.8253 33.0089 16.1545C33.8373 17.4471 34.2444 18.5678 34.4634 19.1695C34.7419 19.936 34.9657 20.7294 35.1294 21.5269L35.1865 21.8042L35.4615 21.8715C35.6537 21.9185 35.8323 21.997 35.9912 22.106C36.1572 22.2196 36.2614 22.3381 36.3304 22.4166C36.5149 22.6267 36.6202 22.8279 36.6667 22.9296C36.7541 23.1207 36.8101 23.3236 36.8351 23.5349C35.9406 23.5581 35.0169 23.5218 34.1385 23.7129L34.1379 23.7105ZM36.6571 26.7749C36.4286 27.0106 36.2358 27.1207 36.0197 27.1516C35.9787 27.1576 35.9388 27.16 35.9001 27.16C35.7864 27.16 35.6847 27.1374 35.5996 27.1094C35.6222 27.0606 35.6436 27.0118 35.6621 26.9636C35.6787 26.957 35.6954 26.9505 35.712 26.9439C36.3637 26.6934 36.9416 26.2059 37.3517 25.6173C37.2082 26.0131 36.9928 26.4279 36.6565 26.7749H36.6571ZM38.4646 22.8606C38.348 22.9171 38.2331 22.9713 38.12 23.0225C38.1807 23.1249 38.242 23.2361 38.3015 23.3564C38.3575 23.4677 38.4063 23.5754 38.4497 23.6783C38.3968 23.6968 38.3367 23.7135 38.2706 23.7254C38.1992 23.7379 38.1307 23.7432 38.0665 23.7432C37.9659 23.7432 37.876 23.7301 37.801 23.7135C37.782 23.6938 37.7605 23.6766 37.7385 23.6605C37.7236 23.2736 37.6368 22.9023 37.4784 22.5559C37.3969 22.3773 37.2475 22.1054 37.0005 21.8245C36.9422 21.7578 36.8488 21.6525 36.7143 21.5364C36.8601 21.3144 36.9886 21.0817 37.0976 20.8407C37.1481 20.7288 37.1928 20.6145 37.235 20.4996C37.4166 20.7716 37.5427 20.9561 37.7141 21.1859C38.1319 21.7441 38.2593 21.8536 38.5134 22.2422C38.636 22.4297 38.7295 22.5892 38.7908 22.6975C38.6848 22.7517 38.5765 22.8064 38.4652 22.8606H38.4646Z" fill="#1E1E1E"></path>
<path d="M35.9654 17.1335C36.0613 17.3001 36.194 17.5453 36.3422 17.8708C36.5653 17.4042 36.6981 16.9948 36.7802 16.6919C36.9403 16.0997 37.0468 15.6658 36.8683 15.2016C36.8355 15.1159 36.651 14.6368 36.3344 14.6136C36.2035 14.6041 36.0999 14.6761 36.0464 14.7136C35.9315 14.7933 35.7952 14.9451 35.6506 15.6319C35.6137 15.8081 35.5708 16.0455 35.5393 16.3312C35.5744 16.4056 35.6274 16.5169 35.697 16.6502C35.8155 16.8781 35.9059 17.0305 35.966 17.134L35.9654 17.1335Z" fill="#1E1E1E"></path>
<path d="M15.2007 22.4005C15.0281 22.5338 14.8382 22.6981 14.6448 22.8975C14.4181 23.132 14.2383 23.3611 14.0985 23.5646C14.3633 23.4831 14.6281 23.401 14.8936 23.3194C14.7246 23.5164 14.5353 23.7664 14.3573 24.0729C14.1967 24.349 14.0806 24.6085 13.9961 24.8335C14.2544 24.7037 14.5341 24.574 14.8364 24.4502C15.0727 24.3532 15.3013 24.2675 15.5203 24.1925C15.403 24.4377 15.2757 24.7603 15.1888 25.1513C15.09 25.5953 15.0745 25.9845 15.0846 26.2791C15.3733 26.2773 15.6738 26.269 15.9851 26.2535C16.2993 26.2374 16.6023 26.2148 16.8921 26.1875C16.6374 26.532 16.3767 26.9379 16.1398 27.4081C16.0577 27.5706 15.9845 27.7295 15.9178 27.8848C16.2779 27.5938 16.7534 27.2724 17.3498 27.007C17.5956 26.8975 17.8312 26.8112 18.0514 26.7427C18.1615 26.6963 18.2895 26.6505 18.4341 26.6118C18.5502 26.5808 18.6585 26.56 18.7567 26.5457C18.5514 26.7362 18.2425 27.0784 18.0562 27.5902C17.983 27.792 17.9431 27.98 17.9223 28.1413C18.155 27.8747 18.5246 27.5146 19.0561 27.2075C19.5167 26.9409 19.7417 26.9314 20.147 26.7564C20.4683 26.6177 21.5842 26.1351 22.0407 25.0739C22.3776 24.2901 22.2847 23.3545 21.8943 22.6481C21.1182 21.2453 19.3691 21.1108 18.8686 21.0721C16.9183 20.9222 15.5215 22.1137 15.2013 22.4023L15.2007 22.4005Z" fill="#1E1E1E"></path>
<path d="M16.6 21.121C16.4268 21.2537 16.2358 21.4167 16.0418 21.6149C15.8138 21.8482 15.6329 22.0762 15.4918 22.2791C15.7573 22.1988 16.0227 22.1184 16.2881 22.0375C16.1179 22.2333 15.9281 22.4827 15.7477 22.7886C15.5859 23.0635 15.4686 23.323 15.3823 23.5474C15.6412 23.4188 15.9215 23.2909 16.2245 23.1683C16.4613 23.0725 16.6899 22.9879 16.9095 22.9141C16.791 23.1587 16.6619 23.4807 16.5726 23.8711C16.4714 24.3145 16.4542 24.7038 16.4631 24.9984C16.7518 24.9984 17.0523 24.9912 17.3636 24.9769C17.6778 24.9626 17.9807 24.9412 18.2712 24.915C18.0147 25.2584 17.7522 25.6625 17.5124 26.1321C17.4296 26.294 17.3552 26.4529 17.288 26.6076C17.6498 26.3184 18.1266 26 18.7247 25.7369C18.9711 25.6286 19.2074 25.5435 19.4282 25.4763C19.5383 25.4304 19.6662 25.3852 19.8114 25.3471C19.9275 25.3168 20.0358 25.2965 20.1346 25.2822C19.9287 25.4715 19.6174 25.8119 19.4287 26.3232C19.3544 26.5249 19.3139 26.7124 19.2925 26.8737C19.5269 26.6082 19.8977 26.25 20.431 25.9452C20.8934 25.681 21.1184 25.6727 21.5237 25.4995C21.8456 25.362 22.9639 24.8853 23.4258 23.8265C23.7668 23.0445 23.6787 22.1083 23.2913 21.4001C22.5223 19.9931 20.7738 19.8497 20.2733 19.8087C18.3236 19.6492 16.9208 20.8335 16.5994 21.1204L16.6 21.121Z" fill="#FCB300"></path>
<path d="M27.8566 20.6074C28.3798 21.0198 28.7089 21.4531 28.8821 21.7102C29.0725 21.9923 29.2035 22.2506 29.2921 22.4482C29.2035 22.3988 29.082 22.3773 28.9475 22.3363C28.8595 22.3089 28.747 22.3059 28.6744 22.2946C28.5309 22.4595 28.494 22.5065 28.2774 22.5648C28.0239 22.6333 27.815 22.6059 27.7126 22.5761C27.2442 22.4398 26.9675 22.075 26.827 21.8852C26.4515 21.3769 26.3586 20.8496 26.295 20.4901C26.242 20.1884 26.2301 19.9348 26.2295 19.7617C26.6366 19.8849 27.2442 20.1247 27.8566 20.6074Z" fill="white"></path>
<path d="M24.976 31.0201C23.806 30.7564 23.0579 30.9207 22.8103 30.9832C22.618 31.032 22.4407 31.0927 22.2788 31.1593C22.3996 31.2403 22.5764 31.3611 22.7859 31.514C23.2078 31.8211 23.5066 32.0711 23.6328 32.1765C23.7964 32.3127 23.8976 32.3949 23.9803 32.4609C23.9803 32.4609 24.1142 32.5687 24.2672 32.6859C24.4243 32.8067 24.5487 32.9031 24.6957 33.0055C25.0599 33.2596 25.5801 33.553 25.6009 33.5649C25.9449 33.7548 26.5294 34.3797 27.5744 36.3633C28.269 34.6773 28.1958 32.9365 27.2644 31.9973C26.674 31.4022 25.8182 31.2093 24.976 31.0201Z" fill="white" stroke="#1E1E1E" stroke-width="0.892724" stroke-linecap="round" stroke-linejoin="round"></path>
<path d="M23.8964 31.8634C23.4102 31.7319 22.4121 31.5307 21.2194 31.7842C20.9724 31.8366 20.7725 31.8967 20.6392 31.9408C20.7635 32.0348 20.9457 32.1753 21.1611 32.3514C21.6253 32.7311 21.9473 33.037 22.0282 33.1126C22.0282 33.1126 22.3074 33.3709 22.596 33.6227C22.743 33.7506 22.862 33.8542 23.0025 33.9684C23.4608 34.3422 24.0369 34.7445 24.066 34.7642C24.4535 35.0308 25.0599 35.7723 26.0318 37.825C26.1449 37.6203 27.2316 35.5837 26.2288 33.6798C25.8378 32.9377 25.2724 32.4865 24.8933 32.2407C24.5475 32.0396 24.2636 31.9634 23.8964 31.864V31.8634Z" fill="white" stroke="#1E1E1E" stroke-width="0.892724" stroke-linecap="round" stroke-linejoin="round"></path>
<path d="M21.4522 33.1126C20.6827 32.9323 19.815 32.7026 19.0294 33.1501C18.733 33.3191 18.5348 33.5334 18.4158 33.6858C18.5896 33.7601 18.8651 33.8827 19.1936 34.0536C19.6352 34.2833 19.8953 34.4493 21.4856 35.5254C21.9504 35.8402 22.2473 36.0419 22.6419 36.3562C22.9056 36.5663 23.1175 36.7371 23.3603 36.9847C23.6317 37.2608 23.9417 37.6334 24.228 38.1232C24.3339 37.8833 24.4649 37.5316 24.544 37.0918C24.6208 36.6627 24.744 36.0533 24.5137 35.4099C24.2369 34.6386 23.6489 34.2006 23.2561 33.9077C22.5348 33.3697 21.8391 33.2031 21.451 33.1126H21.4522Z" fill="white" stroke="#1E1E1E" stroke-width="0.892724" stroke-linecap="round" stroke-linejoin="round"></path>
<path d="M21.3462 35.5033C21.2445 35.3248 21.0987 35.0123 21.0796 34.6059C21.0689 34.3732 21.0362 33.606 21.5926 33.2608C21.9706 33.0263 22.4925 33.0674 22.9287 33.3376C22.9234 33.2751 22.874 32.5466 23.4049 32.155C23.7102 31.9301 24.0452 31.9354 24.1881 31.9402C25.0225 31.9658 25.5337 32.7234 25.6022 32.8287C25.4141 32.4455 25.4938 31.9937 25.7855 31.7253C26.0217 31.5075 26.3675 31.4379 26.6877 31.5373C26.5294 31.2415 26.1408 30.6166 25.3831 30.2178C24.7053 29.8613 24.0857 29.8744 23.5043 29.8816C22.352 29.8947 21.5301 30.2928 21.3451 30.3863C21.032 30.544 20.391 30.8755 19.859 31.564C19.7072 31.7604 18.4068 33.4394 19.1757 34.6273C19.7917 35.5801 21.2367 35.5105 21.3451 35.5033H21.3462Z" fill="#FCB300" stroke="#1E1E1E" stroke-width="0.892724" stroke-linecap="round" stroke-linejoin="round"></path>
<path d="M39.687 33.3656C39.3341 32.7561 38.7241 32.3878 38.3616 32.1693C38.2158 32.0812 38.0908 32.0164 38.0051 31.9741C38.0206 32.0801 38.0426 32.2366 38.0635 32.4264C38.1051 32.8085 38.117 33.096 38.1224 33.2174C38.1295 33.3745 38.1349 33.4703 38.1396 33.5483C38.1396 33.5483 38.1474 33.6745 38.1593 33.8161C38.1712 33.9619 38.1807 34.078 38.198 34.2089C38.2265 34.4309 38.236 34.5422 38.3414 34.9778C38.4134 35.276 38.3866 35.9152 38.0129 37.362C38.1373 37.3102 39.6954 36.6359 39.959 35.0915C39.9917 34.8987 40.1173 34.1083 39.6876 33.3662L39.687 33.3656Z" fill="white" stroke="#1E1E1E" stroke-width="0.892724" stroke-linecap="round" stroke-linejoin="round"></path>
<path d="M38.3225 33.0567C37.9273 32.1401 37.2351 31.6343 37.0149 31.4777C36.8638 31.37 36.7287 31.2909 36.6299 31.2367C36.6388 31.3569 36.6519 31.5331 36.6668 31.7461C36.7608 33.1067 36.8191 33.9482 36.8001 34.6481C36.784 35.2534 36.7001 36.1223 36.3853 37.1858C36.5329 37.1453 38.0481 36.702 38.5177 35.2819C38.8498 34.2785 38.4623 33.3828 38.3219 33.0579L38.3225 33.0567Z" fill="white" stroke="#1E1E1E" stroke-width="0.892724" stroke-linecap="round" stroke-linejoin="round"></path>
<path d="M36.3678 32.2306C36.1578 31.8586 35.7977 31.2212 35.2686 31.2575C35.1603 31.2653 35.0698 31.2992 35.0121 31.326C34.8758 31.3664 34.7258 31.4331 34.6889 31.5456C34.6586 31.6372 34.7264 31.7182 34.733 31.7503C34.7889 32.0407 34.833 32.4139 34.9561 33.5709C35.0008 33.9905 35.0288 34.2589 35.0389 34.641C35.0466 34.9326 35.0359 35.17 35.0282 35.3004C35.0264 35.3343 35.0246 35.3545 35.024 35.3676C35.0115 35.5551 35.0133 35.8622 35.0734 36.3901C35.2311 36.3472 35.4561 36.2681 35.6935 36.1139C36.1988 35.7854 36.4238 35.3355 36.5297 35.1177C36.8392 34.4803 36.8106 33.8994 36.7946 33.6262C36.7529 32.9228 36.494 32.4526 36.369 32.2306H36.3678Z" fill="white" stroke="#1E1E1E" stroke-width="0.892724" stroke-linecap="round" stroke-linejoin="round"></path>
<path d="M34.927 33.5013C34.9555 33.3846 35.0389 33.1174 35.2799 32.9019C35.3477 32.8412 35.7655 32.4586 36.2482 32.6175C36.6362 32.7448 36.7856 33.1299 36.8082 33.1906C36.8356 33.1573 37.2242 32.7002 37.7664 32.7758C38.067 32.8174 38.2658 33.0025 38.3223 33.0567C38.5556 33.2799 38.6187 33.5429 38.6371 33.6393C38.8353 33.3263 39.2073 33.2031 39.4983 33.3233C39.8197 33.4566 39.8899 33.8238 39.8947 33.8494C39.8947 33.4638 39.8239 33.1662 39.7637 32.9746C39.3686 31.7176 38.1997 31.0927 37.7248 30.9118C37.7087 30.9058 37.6962 30.9011 37.6879 30.8981C36.9808 30.6368 36.322 30.7011 36.322 30.7011C36.3155 30.7017 36.2928 30.7041 36.2696 30.707C35.8316 30.7594 34.6425 31.0576 34.4015 31.9235C34.1854 32.7002 34.8686 33.4394 34.9276 33.5013H34.927Z" fill="#FCB300" stroke="#1E1E1E" stroke-width="0.892724" stroke-linecap="round" stroke-linejoin="round"></path>
<path d="M34.9907 24.5347C35.4305 24.4919 35.8924 24.4597 36.3744 24.4413C36.6625 24.4306 36.6208 24.4252 36.8946 24.4246" fill="#1E1E1E"></path>
<path d="M34.9907 24.5347C35.4305 24.4919 35.8924 24.4597 36.3744 24.4413C36.6625 24.4306 36.6208 24.4252 36.8946 24.4246" stroke="white" stroke-width="0.47612" stroke-linecap="round" stroke-linejoin="round"></path>
</g>
<defs>
<clipPath id="SvgjsClipPath1001">
<rect width="49.3301" height="50.2889" fill="white" transform="translate(0.5 0.85553)"></rect>
</clipPath>
</defs>
</svg><style>@media (prefers-color-scheme: light) { :root { filter: none; } }
@media (prefers-color-scheme: dark) { :root { filter: none; } }
</style></svg>